<svg width="134" height="53" viewBox="0 0 134 53" fill="none" xmlns="http://www.w3.org/2000/svg">
<path d="M44.4921 23.7182L22.746 1.97213L1 23.7182V51.1182H44.4921" stroke="white" stroke-width="2.00063" stroke-linecap="round" stroke-linejoin="round"/>
<path d="M45.5723 35.6325V28.044H47.0337V35.6325H45.5723ZM41.3553 35.6325V28.044H42.8167V35.6325H41.3553ZM42.3783 32.3914V31.0867H45.8124L45.802 32.3914H42.3783ZM50.7814 35.7107C50.2421 35.7107 49.7724 35.5977 49.3723 35.3715C48.9722 35.1453 48.6625 34.8131 48.4433 34.3747C48.2241 33.9328 48.1145 33.3917 48.1145 32.7515C48.1145 32.1461 48.2293 31.6242 48.4589 31.1858C48.6921 30.7474 49.0122 30.4117 49.4193 30.1785C49.8263 29.9419 50.2874 29.8236 50.8023 29.8236C51.359 29.8236 51.8357 29.9419 52.2323 30.1785C52.6324 30.4117 52.9386 30.7474 53.1509 31.1858C53.3631 31.6242 53.4692 32.1461 53.4692 32.7515C53.4692 33.3917 53.3509 33.9328 53.1143 34.3747C52.8777 34.8131 52.5559 35.1453 52.1488 35.3715C51.7452 35.5977 51.2894 35.7107 50.7814 35.7107ZM50.8023 34.5051C51.1572 34.5051 51.4495 34.3729 51.6791 34.1085C51.9122 33.8441 52.0288 33.3917 52.0288 32.7515C52.0288 32.1566 51.9122 31.7216 51.6791 31.4468C51.446 31.1684 51.1468 31.0292 50.7814 31.0292C50.4265 31.0292 50.1343 31.1667 49.9046 31.4416C49.675 31.7164 49.5602 32.1531 49.5602 32.7515C49.5602 33.3639 49.6785 33.8093 49.9151 34.0876C50.1517 34.366 50.4474 34.5051 50.8023 34.5051ZM54.5651 35.6325V29.9332H55.8333L55.969 32.0835L55.8959 31.6503C55.9377 31.3372 56.016 31.0414 56.1308 30.7631C56.2491 30.4812 56.4265 30.2534 56.6631 30.0794C56.9032 29.9054 57.225 29.8184 57.6287 29.8184C58.081 29.8184 58.4515 29.9524 58.7403 30.2203C59.0326 30.4847 59.2118 30.8936 59.2779 31.4468L59.2988 31.6347V35.6325H57.8531V32.381C57.8531 32.0365 57.8218 31.7686 57.7591 31.5772C57.7 31.3824 57.6113 31.245 57.493 31.1649C57.3747 31.0849 57.2268 31.0449 57.0493 31.0449C56.8093 31.0449 56.5988 31.118 56.4178 31.2641C56.2369 31.4102 56.1012 31.579 56.0107 31.7704V35.6325H54.5651ZM61.1359 35.6325V32.381C61.1359 32.0365 61.1045 31.7686 61.0419 31.5772C60.9828 31.3824 60.894 31.245 60.7757 31.1649C60.6574 31.0849 60.5096 31.0449 60.3321 31.0449C60.092 31.0449 59.8815 31.118 59.7006 31.2641C59.5232 31.4102 59.3892 31.579 59.2988 31.7704L59.2779 32.0835L59.2205 31.7129C59.2553 31.4102 59.3283 31.1145 59.4397 30.8257C59.551 30.5334 59.7232 30.2934 59.9563 30.1055C60.1929 29.9141 60.5113 29.8184 60.9114 29.8184C61.4229 29.8184 61.8282 29.9872 62.1275 30.3247C62.4302 30.6587 62.5815 31.1702 62.5815 31.8591V35.6325H61.1359ZM66.3416 35.7107C65.778 35.7107 65.2943 35.5977 64.8907 35.3715C64.4871 35.1419 64.1774 34.8096 63.9617 34.3747C63.746 33.9363 63.6381 33.4039 63.6381 32.7776C63.6381 32.1444 63.7512 31.6086 63.9774 31.1702C64.207 30.7318 64.5254 30.3977 64.9325 30.1681C65.343 29.9385 65.8197 29.8236 66.3625 29.8236C66.8913 29.8236 67.3384 29.9263 67.7038 30.1316C68.0726 30.3334 68.3527 30.6343 68.544 31.0345C68.7354 31.4311 68.8311 31.9182 68.8311 32.4958C68.8311 32.5897 68.8276 32.6785 68.8207 32.762C68.8172 32.8455 68.812 32.9446 68.805 33.0595H65.0577C65.0925 33.5814 65.2195 33.9641 65.4387 34.2076C65.6614 34.4512 65.9502 34.573 66.3051 34.573C66.6182 34.573 66.8566 34.5051 67.0201 34.3694C67.1836 34.2337 67.2863 34.0685 67.328 33.8736H68.7111C68.6797 34.2529 68.5614 34.5817 68.3562 34.86C68.1544 35.1349 67.8812 35.3454 67.5368 35.4915C67.1958 35.6377 66.7974 35.7107 66.3416 35.7107ZM65.6736 32.1774H67.4272C67.4133 31.7878 67.3176 31.492 67.1401 31.2902C66.9662 31.0884 66.6878 30.9875 66.3051 30.9875C65.8841 30.9875 65.5727 31.1336 65.3709 31.4259C65.1725 31.7147 65.0647 32.1218 65.0473 32.6472C65.0751 32.4662 65.1395 32.3427 65.2404 32.2766C65.3413 32.2105 65.4857 32.1774 65.6736 32.1774ZM69.897 35.6325V28.044H72.2769L73.3364 32.047L73.6965 33.4822H73.7226L74.0931 32.047L75.1265 28.044H77.5168V35.6325H76.0816V31.5564L76.2016 29.3226H76.1599L75.497 31.5146L74.2288 35.6325H73.2163L71.9168 31.5146L71.254 29.3226H71.207L71.327 31.5564V35.6325H69.897ZM80.4233 35.6951C80.0893 35.6951 79.7884 35.6325 79.5204 35.5072C79.256 35.3819 79.0472 35.201 78.8942 34.9644C78.7445 34.7278 78.6697 34.4477 78.6697 34.1241C78.6697 33.7832 78.7358 33.5031 78.8681 33.2839C79.0003 33.0612 79.1847 32.8855 79.4213 32.7568C79.6579 32.6245 79.931 32.5271 80.2407 32.4645C80.4564 32.4193 80.6791 32.3827 80.9087 32.3549C81.1418 32.3236 81.3593 32.2992 81.5611 32.2818C81.7629 32.2644 81.9264 32.2505 82.0517 32.2401V32.047C82.0517 31.6747 81.9838 31.405 81.8481 31.238C81.7124 31.0675 81.4793 30.9823 81.1488 30.9823C80.9365 30.9823 80.7574 31.0101 80.6112 31.0658C80.4686 31.1215 80.3607 31.2224 80.2876 31.3685C80.2146 31.5146 80.178 31.7251 80.178 32H78.8315C78.7933 31.5024 78.8681 31.0936 79.0559 30.7735C79.2473 30.4534 79.5274 30.2168 79.8962 30.0637C80.2685 29.9072 80.7052 29.8289 81.2062 29.8289C81.5019 29.8289 81.7838 29.8619 82.0517 29.928C82.3231 29.9907 82.5631 30.1003 82.7719 30.2568C82.9841 30.4099 83.1512 30.6204 83.2729 30.8883C83.3982 31.1562 83.4608 31.4955 83.4608 31.906V35.6325H82.0412L82.0517 34.3277C81.989 34.7104 81.829 35.034 81.5715 35.2984C81.3141 35.5629 80.9313 35.6951 80.4233 35.6951ZM80.8617 34.6878C81.0392 34.6878 81.2114 34.6565 81.3784 34.5939C81.5489 34.5278 81.695 34.4373 81.8168 34.3225C81.9421 34.2076 82.0204 34.0754 82.0517 33.9258V32.9603C81.9125 32.9812 81.7612 33.0055 81.5976 33.0334C81.4341 33.0612 81.2914 33.089 81.1697 33.1169C80.8008 33.1934 80.5416 33.2995 80.392 33.4352C80.2459 33.5674 80.1728 33.7536 80.1728 33.9937C80.1728 34.1363 80.2007 34.2598 80.2563 34.3642C80.3155 34.4686 80.3972 34.5486 80.5016 34.6043C80.6095 34.66 80.7295 34.6878 80.8617 34.6878ZM86.718 35.7003C86.2518 35.7003 85.8551 35.5768 85.5281 35.3297C85.2045 35.0792 84.9592 34.733 84.7922 34.2912C84.6252 33.8493 84.5417 33.3378 84.5417 32.7568C84.5417 32.127 84.6426 31.5946 84.8444 31.1597C85.0462 30.7248 85.3176 30.3943 85.6585 30.1681C85.9995 29.9419 86.3788 29.8289 86.7963 29.8289C87.1233 29.8289 87.393 29.8845 87.6052 29.9959C87.8175 30.1037 87.981 30.2412 88.0958 30.4082C88.2106 30.5752 88.2855 30.7405 88.3202 30.904L88.5916 31.2067L88.2524 31.6138C88.2211 31.5024 88.1637 31.4033 88.0802 31.3163C88.0001 31.2258 87.8905 31.1545 87.7514 31.1023C87.6157 31.0501 87.4452 31.024 87.2399 31.024C86.8607 31.024 86.5579 31.1649 86.3318 31.4468C86.1056 31.7286 85.9925 32.174 85.9925 32.7828C85.9925 33.3465 86.0987 33.7779 86.3109 34.0772C86.5232 34.3729 86.8154 34.5208 87.1877 34.5208C87.4 34.5208 87.5809 34.4877 87.7305 34.4216C87.8836 34.352 88.0036 34.272 88.0906 34.1816C88.1811 34.0876 88.235 34.0041 88.2524 33.931L88.315 34.0511L88.2524 34.3225C88.2211 34.4825 88.1706 34.6443 88.101 34.8078C88.0315 34.9714 87.9375 35.121 87.8192 35.2567C87.7009 35.3889 87.5513 35.4968 87.3704 35.5803C87.1929 35.6603 86.9755 35.7003 86.718 35.7003ZM88.2576 35.6325L88.2524 27.5116H89.6876V35.6325H88.2576ZM93.4664 35.7107C92.9027 35.7107 92.4191 35.5977 92.0155 35.3715C91.6119 35.1419 91.3022 34.8096 91.0865 34.3747C90.8708 33.9363 90.7629 33.4039 90.7629 32.7776C90.7629 32.1444 90.876 31.6086 91.1022 31.1702C91.3318 30.7318 91.6502 30.3977 92.0572 30.1681C92.4678 29.9385 92.9445 29.8236 93.4873 29.8236C94.0161 29.8236 94.4632 29.9263 94.8286 30.1316C95.1974 30.3334 95.4775 30.6343 95.6688 31.0345C95.8602 31.4311 95.9559 31.9182 95.9559 32.4958C95.9559 32.5897 95.9524 32.6785 95.9454 32.762C95.942 32.8455 95.9367 32.9446 95.9298 33.0595H92.1825C92.2173 33.5814 92.3443 33.9641 92.5635 34.2076C92.7862 34.4512 93.075 34.573 93.4299 34.573C93.743 34.573 93.9813 34.5051 94.1449 34.3694C94.3084 34.2337 94.411 34.0685 94.4528 33.8736H95.8358C95.8045 34.2529 95.6862 34.5817 95.4809 34.86C95.2791 35.1349 95.006 35.3454 94.6616 35.4915C94.3206 35.6377 93.9222 35.7107 93.4664 35.7107ZM92.7984 32.1774H94.552C94.538 31.7878 94.4424 31.492 94.2649 31.2902C94.0909 31.0884 93.8126 30.9875 93.4299 30.9875C93.0089 30.9875 92.6974 31.1336 92.4956 31.4259C92.2973 31.7147 92.1895 32.1218 92.1721 32.6472C92.1999 32.4662 92.2643 32.3427 92.3652 32.2766C92.4661 32.2105 92.6105 32.1774 92.7984 32.1774ZM100.016 35.6325V34.2703H101.033C101.517 34.2703 101.929 34.1868 102.27 34.0198C102.615 33.8493 102.877 33.5814 103.058 33.216C103.239 32.8507 103.33 32.3723 103.33 31.7808C103.33 31.1823 103.239 30.7074 103.058 30.356C102.881 30.0046 102.622 29.7541 102.281 29.6044C101.94 29.4514 101.522 29.3748 101.028 29.3748H99.974V28.044H101.18C101.935 28.044 102.585 28.1814 103.131 28.4563C103.681 28.7311 104.104 29.1434 104.4 29.6932C104.699 30.2429 104.849 30.9336 104.849 31.7651C104.849 32.5932 104.694 33.2943 104.384 33.8684C104.074 34.4425 103.646 34.8809 103.1 35.1836C102.554 35.4828 101.924 35.6325 101.211 35.6325H100.016ZM98.8362 35.6325V28.044H100.303V35.6325H98.8362ZM108.318 35.7107C107.755 35.7107 107.271 35.5977 106.867 35.3715C106.464 35.1419 106.154 34.8096 105.938 34.3747C105.723 33.9363 105.615 33.4039 105.615 32.7776C105.615 32.1444 105.728 31.6086 105.954 31.1702C106.184 30.7318 106.502 30.3977 106.909 30.1681C107.32 29.9385 107.796 29.8236 108.339 29.8236C108.868 29.8236 109.315 29.9263 109.68 30.1316C110.049 30.3334 110.329 30.6343 110.521 31.0345C110.712 31.4311 110.808 31.9182 110.808 32.4958C110.808 32.5897 110.804 32.6785 110.797 32.762C110.794 32.8455 110.789 32.9446 110.782 33.0595H107.034C107.069 33.5814 107.196 33.9641 107.415 34.2076C107.638 34.4512 107.927 34.573 108.282 34.573C108.595 34.573 108.833 34.5051 108.997 34.3694C109.16 34.2337 109.263 34.0685 109.305 33.8736H110.688C110.656 34.2529 110.538 34.5817 110.333 34.86C110.131 35.1349 109.858 35.3454 109.513 35.4915C109.172 35.6377 108.774 35.7107 108.318 35.7107ZM107.65 32.1774H109.404C109.39 31.7878 109.294 31.492 109.117 31.2902C108.943 31.0884 108.664 30.9875 108.282 30.9875C107.861 30.9875 107.549 31.1336 107.348 31.4259C107.149 31.7147 107.041 32.1218 107.024 32.6472C107.052 32.4662 107.116 32.3427 107.217 32.2766C107.318 32.2105 107.462 32.1774 107.65 32.1774ZM113.973 35.7212C113.51 35.7212 113.106 35.6533 112.762 35.5176C112.417 35.3819 112.146 35.1767 111.948 34.9018C111.753 34.6234 111.645 34.2685 111.624 33.8371H113.023C113.061 34.1224 113.164 34.3294 113.331 34.4582C113.498 34.5834 113.714 34.646 113.978 34.646C114.138 34.646 114.286 34.6287 114.422 34.5939C114.557 34.5591 114.665 34.4999 114.745 34.4164C114.829 34.3329 114.87 34.2181 114.87 34.072C114.87 33.9606 114.844 33.8702 114.792 33.8006C114.74 33.7275 114.662 33.6666 114.557 33.6179C114.456 33.5657 114.331 33.517 114.182 33.4718C114.032 33.4265 113.86 33.3761 113.665 33.3204C113.32 33.2195 113.004 33.0995 112.715 32.9603C112.426 32.8176 112.195 32.6298 112.021 32.3966C111.847 32.1635 111.76 31.8591 111.76 31.4833C111.76 30.944 111.958 30.5352 112.355 30.2568C112.752 29.975 113.268 29.8341 113.905 29.8341C114.295 29.8341 114.646 29.888 114.959 29.9959C115.272 30.1037 115.53 30.2899 115.732 30.5543C115.937 30.8187 116.067 31.1858 116.123 31.6555L114.735 31.6503C114.693 31.4346 114.627 31.2728 114.536 31.1649C114.449 31.0536 114.349 30.9788 114.234 30.9405C114.122 30.9023 114.004 30.8831 113.879 30.8831C113.74 30.8831 113.614 30.9057 113.503 30.951C113.395 30.9927 113.312 31.0553 113.253 31.1388C113.193 31.2224 113.164 31.3233 113.164 31.4416C113.164 31.5877 113.206 31.7095 113.289 31.8069C113.376 31.9043 113.507 31.9896 113.68 32.0626C113.858 32.1322 114.079 32.207 114.343 32.287C114.538 32.3392 114.747 32.4001 114.97 32.4697C115.192 32.5393 115.403 32.6332 115.601 32.7515C115.799 32.8664 115.961 33.0229 116.086 33.2212C116.215 33.4161 116.28 33.6701 116.28 33.9832C116.28 34.5295 116.071 34.9557 115.653 35.2619C115.236 35.5681 114.676 35.7212 113.973 35.7212ZM117.357 35.6325V29.9332H118.797L118.792 35.6325H117.357ZM118.082 29.1921C117.832 29.1921 117.619 29.1052 117.445 28.9312C117.271 28.7572 117.185 28.5345 117.185 28.2632C117.185 27.9918 117.271 27.7708 117.445 27.6003C117.623 27.4264 117.835 27.3394 118.082 27.3394C118.329 27.3394 118.54 27.4264 118.714 27.6003C118.891 27.7708 118.98 27.9918 118.98 28.2632C118.98 28.5345 118.891 28.7572 118.714 28.9312C118.54 29.1052 118.329 29.1921 118.082 29.1921ZM122.575 37.9654C122.06 37.9723 121.609 37.8923 121.223 37.7253C120.84 37.5618 120.55 37.3217 120.352 37.0051C120.157 36.6919 120.082 36.3161 120.127 35.8777H121.521C121.521 36.0552 121.547 36.2135 121.599 36.3527C121.651 36.4919 121.756 36.6015 121.912 36.6815C122.069 36.765 122.297 36.8067 122.596 36.8067C122.867 36.8067 123.074 36.7685 123.217 36.6919C123.363 36.6189 123.464 36.504 123.52 36.3475C123.575 36.1909 123.603 35.9926 123.603 35.7525V34.1763C123.561 34.4129 123.481 34.6269 123.363 34.8183C123.245 35.0062 123.079 35.154 122.867 35.2619C122.655 35.3698 122.384 35.4237 122.053 35.4237C121.712 35.4237 121.408 35.3506 121.14 35.2045C120.875 35.0584 120.651 34.86 120.466 34.6095C120.282 34.3555 120.141 34.065 120.044 33.7379C119.95 33.4109 119.903 33.0682 119.903 32.7098C119.903 32.0835 120.002 31.5581 120.2 31.1336C120.402 30.7057 120.668 30.3821 120.999 30.1629C121.333 29.9402 121.702 29.8289 122.105 29.8289C122.404 29.8289 122.655 29.8724 122.857 29.9593C123.059 30.0428 123.22 30.1507 123.342 30.2829C123.467 30.4151 123.56 30.5526 123.619 30.6952L123.65 29.9385H125.028V35.6638C125.028 36.1752 124.929 36.5997 124.73 36.9372C124.536 37.2782 124.255 37.5322 123.89 37.6992C123.525 37.8697 123.086 37.9584 122.575 37.9654ZM122.538 34.2546C122.754 34.2546 122.935 34.2285 123.081 34.1763C123.227 34.1207 123.342 34.0528 123.426 33.9728C123.513 33.8893 123.572 33.8093 123.603 33.7327V31.5668C123.568 31.4694 123.506 31.3807 123.415 31.3006C123.328 31.2206 123.213 31.1545 123.071 31.1023C122.932 31.0501 122.765 31.024 122.57 31.024C122.204 31.024 121.912 31.158 121.693 31.4259C121.474 31.6938 121.364 32.1096 121.364 32.6732C121.364 33.1743 121.468 33.564 121.677 33.8423C121.886 34.1172 122.173 34.2546 122.538 34.2546ZM126.439 35.6325V29.9332H127.707L127.843 32.0835L127.77 31.6503C127.812 31.3372 127.893 31.0414 128.015 30.7631C128.137 30.4812 128.32 30.2534 128.563 30.0794C128.81 29.9054 129.136 29.8184 129.539 29.8184C130.068 29.8184 130.486 29.9872 130.792 30.3247C131.098 30.6587 131.251 31.1702 131.251 31.8591V35.6325H129.811V32.381C129.811 32.0365 129.778 31.7686 129.711 31.5772C129.649 31.3824 129.553 31.245 129.424 31.1649C129.299 31.0849 129.139 31.0449 128.944 31.0449C128.708 31.0449 128.494 31.118 128.302 31.2641C128.114 31.4102 127.975 31.579 127.885 31.7704V35.6325H126.439Z" fill="white"/>
<path d="M44.1058 46.1697C43.6047 46.1697 43.1629 46.1106 42.7801 45.9923C42.4009 45.8705 42.0825 45.707 41.8251 45.5017C41.5711 45.2964 41.3797 45.065 41.251 44.8075C41.1222 44.5466 41.0579 44.2787 41.0579 44.0038C41.0579 43.6524 41.1222 43.3619 41.251 43.1322C41.3797 42.8991 41.5484 42.713 41.7572 42.5738C41.966 42.4346 42.1921 42.3337 42.4357 42.2711C42.6827 42.2084 42.9228 42.1719 43.1559 42.1615L44.0484 41.9057C44.3406 41.7979 44.5546 41.65 44.6903 41.4621C44.8295 41.2742 44.9182 41.0759 44.9565 40.8672C44.9982 40.6549 45.0191 40.4635 45.0191 40.2931C45.0191 40.1574 44.993 40.0304 44.9408 39.9121C44.8886 39.7903 44.7999 39.6911 44.6747 39.6146C44.5529 39.538 44.3806 39.4998 44.158 39.4998C43.9353 39.4998 43.7561 39.5415 43.6204 39.625C43.4882 39.7085 43.3908 39.8129 43.3281 39.9382C43.269 40.0634 43.2394 40.1887 43.2394 40.3139C43.2394 40.5088 43.2777 40.6914 43.3542 40.8619C43.4343 41.0289 43.5421 41.1907 43.6778 41.3473C43.8135 41.5039 43.9649 41.6639 44.1319 41.8275L44.2937 41.9997L46.256 44.1291L46.6161 44.5048L48.0253 46.0758H46.3917L45.7967 45.4025L45.421 44.9537L43.1194 42.3546L42.9524 42.1824C42.7888 42.0223 42.6201 41.8501 42.4461 41.6657C42.2756 41.4813 42.1312 41.2725 42.0129 41.0394C41.8946 40.8063 41.8355 40.5401 41.8355 40.2409C41.8355 39.8686 41.9347 39.5415 42.133 39.2597C42.3313 38.9744 42.6079 38.7517 42.9628 38.5916C43.3212 38.4316 43.7352 38.3516 44.2049 38.3516C44.6085 38.3516 44.9756 38.4281 45.3062 38.5812C45.6402 38.7308 45.9081 38.9431 46.1099 39.2179C46.3152 39.4928 46.4178 39.8146 46.4178 40.1835C46.4178 40.4827 46.3395 40.7523 46.183 40.9924C46.0299 41.229 45.7846 41.4326 45.4471 41.603C45.1096 41.77 44.6625 41.9005 44.1058 41.9945L43.2185 42.2241C43.0133 42.2867 42.8532 42.3911 42.7384 42.5372C42.627 42.6834 42.5505 42.8521 42.5087 43.0435C42.467 43.2349 42.4461 43.4367 42.4461 43.6489C42.4461 43.8751 42.5122 44.089 42.6444 44.2908C42.7767 44.4927 42.9732 44.6579 43.2342 44.7867C43.4986 44.9119 43.8205 44.9745 44.1997 44.9745C44.4746 44.9745 44.7007 44.9519 44.8782 44.9067C45.0591 44.858 45.2087 44.7988 45.327 44.7292C45.4488 44.6562 45.5584 44.5849 45.6558 44.5153L46.0942 44.0977C46.1777 43.9794 46.2404 43.8403 46.2821 43.6802C46.3273 43.5202 46.3587 43.3479 46.3761 43.1635C46.3935 42.9791 46.4022 42.786 46.4022 42.5842L47.7382 42.579C47.7382 42.9095 47.6982 43.2314 47.6182 43.5445C47.5382 43.8542 47.4286 44.1343 47.2894 44.3848C47.1502 44.6353 46.9919 44.8336 46.8145 44.9798L46.4283 45.2668C46.2056 45.573 45.8907 45.8009 45.4836 45.9505C45.0765 46.0966 44.6172 46.1697 44.1058 46.1697ZM53.819 46.1801C53.1266 46.1801 52.5229 46.0271 52.008 45.7209C51.4965 45.4147 51.0981 44.9693 50.8128 44.3848C50.531 43.7968 50.3901 43.0852 50.3901 42.2502C50.3901 41.4465 50.5275 40.7523 50.8024 40.1678C51.0807 39.5833 51.4774 39.1327 51.9923 38.8161C52.5108 38.4994 53.1283 38.3411 53.8451 38.3411C54.3635 38.3411 54.8384 38.4403 55.2699 38.6386C55.7013 38.8369 56.0475 39.1327 56.3085 39.5259C56.5729 39.919 56.7086 40.4061 56.7156 40.9872H55.2229C55.2125 40.6775 55.1394 40.4288 55.0037 40.2409C54.868 40.053 54.6906 39.9173 54.4714 39.8338C54.2522 39.7503 54.0121 39.7085 53.7511 39.7085C53.3928 39.7085 53.0727 39.8025 52.7908 39.9904C52.5125 40.1782 52.2916 40.4618 52.128 40.8411C51.9645 41.2203 51.8827 41.697 51.8827 42.2711C51.8827 42.88 51.9662 43.3723 52.1332 43.7481C52.3003 44.1204 52.5264 44.3918 52.8117 44.5622C53.097 44.7292 53.4171 44.8128 53.772 44.8128C54.106 44.8128 54.3792 44.764 54.5914 44.6666C54.8037 44.5657 54.962 44.4283 55.0663 44.2543C55.1707 44.0803 55.2264 43.882 55.2334 43.6593H56.726C56.7156 44.1778 56.5868 44.6266 56.3398 45.0059C56.0962 45.3816 55.7587 45.6722 55.3273 45.8774C54.8959 46.0792 54.3931 46.1801 53.819 46.1801ZM60.1084 46.1488C59.5691 46.1488 59.0994 46.0358 58.6993 45.8096C58.2992 45.5834 57.9895 45.2512 57.7703 44.8128C57.5511 44.3709 57.4415 43.8298 57.4415 43.1896C57.4415 42.5842 57.5563 42.0623 57.786 41.6239C58.0191 41.1855 58.3392 40.8498 58.7463 40.6166C59.1534 40.38 59.6144 40.2617 60.1293 40.2617C60.686 40.2617 61.1627 40.38 61.5593 40.6166C61.9595 40.8498 62.2656 41.1855 62.4779 41.6239C62.6901 42.0623 62.7962 42.5842 62.7962 43.1896C62.7962 43.8298 62.6779 44.3709 62.4414 44.8128C62.2048 45.2512 61.8829 45.5834 61.4758 45.8096C61.0722 46.0358 60.6164 46.1488 60.1084 46.1488ZM60.1293 44.9432C60.4842 44.9432 60.7765 44.811 61.0061 44.5466C61.2392 44.2822 61.3558 43.8298 61.3558 43.1896C61.3558 42.5947 61.2392 42.1597 61.0061 41.8849C60.773 41.6065 60.4738 41.4673 60.1084 41.4673C59.7535 41.4673 59.4613 41.6048 59.2316 41.8796C59.002 42.1545 58.8872 42.5912 58.8872 43.1896C58.8872 43.802 59.0055 44.2474 59.2421 44.5257C59.4787 44.8041 59.7744 44.9432 60.1293 44.9432ZM63.9023 46.0705V40.3713H65.1705L65.3062 42.5216L65.2331 42.0884C65.2749 41.7753 65.3567 41.4795 65.4784 41.2012C65.6002 40.9193 65.7829 40.6914 66.0264 40.5175C66.2735 40.3435 66.5988 40.2565 67.0024 40.2565C67.5313 40.2565 67.9488 40.4253 68.255 40.7628C68.5611 41.0968 68.7142 41.6083 68.7142 42.2972V46.0705H67.2738V42.8191C67.2738 42.4746 67.2407 42.2067 67.1746 42.0153C67.112 41.8205 67.0163 41.6831 66.8876 41.603C66.7623 41.523 66.6023 41.483 66.4074 41.483C66.1708 41.483 65.9568 41.5561 65.7655 41.7022C65.5776 41.8483 65.4384 42.0171 65.348 42.2084V46.0705H63.9023ZM72.0573 46.1593C71.5945 46.1593 71.1909 46.0914 70.8465 45.9557C70.502 45.82 70.2306 45.6147 70.0323 45.3399C69.8374 45.0615 69.7296 44.7066 69.7087 44.2752H71.1074C71.1457 44.5605 71.2483 44.7675 71.4153 44.8963C71.5824 45.0215 71.7981 45.0841 72.0625 45.0841C72.2226 45.0841 72.3704 45.0667 72.5061 45.032C72.6418 44.9972 72.7497 44.938 72.8297 44.8545C72.9132 44.771 72.955 44.6562 72.955 44.51C72.955 44.3987 72.9289 44.3082 72.8767 44.2387C72.8245 44.1656 72.7462 44.1047 72.6418 44.056C72.5409 44.0038 72.4157 43.9551 72.266 43.9099C72.1164 43.8646 71.9442 43.8142 71.7494 43.7585C71.4049 43.6576 71.0883 43.5376 70.7995 43.3984C70.5107 43.2557 70.2793 43.0679 70.1054 42.8347C69.9314 42.6016 69.8444 42.2972 69.8444 41.9214C69.8444 41.3821 70.0427 40.9733 70.4394 40.6949C70.836 40.4131 71.3527 40.2722 71.9894 40.2722C72.3791 40.2722 72.7305 40.3261 73.0437 40.434C73.3568 40.5418 73.6143 40.728 73.8161 40.9924C74.0214 41.2568 74.1519 41.6239 74.2075 42.0936L72.8193 42.0884C72.7775 41.8727 72.7114 41.7109 72.6209 41.603C72.534 41.4917 72.4331 41.4169 72.3182 41.3786C72.2069 41.3403 72.0886 41.3212 71.9633 41.3212C71.8242 41.3212 71.6989 41.3438 71.5876 41.3891C71.4797 41.4308 71.3962 41.4934 71.3371 41.5769C71.2779 41.6604 71.2483 41.7614 71.2483 41.8796C71.2483 42.0258 71.2901 42.1476 71.3736 42.245C71.4606 42.3424 71.591 42.4276 71.765 42.5007C71.9425 42.5703 72.1634 42.6451 72.4278 42.7251C72.6227 42.7773 72.8314 42.8382 73.0541 42.9078C73.2768 42.9774 73.4873 43.0713 73.6856 43.1896C73.884 43.3044 74.0457 43.461 74.171 43.6593C74.2997 43.8542 74.3641 44.1082 74.3641 44.4213C74.3641 44.9676 74.1553 45.3938 73.7378 45.7C73.3203 46.0062 72.7601 46.1593 72.0573 46.1593ZM77.1541 46.1436C76.6913 46.1436 76.3312 46.0271 76.0737 45.7939C75.8163 45.5573 75.6875 45.2059 75.6875 44.7397L75.6771 42.031C75.6771 41.9092 75.7084 41.8048 75.771 41.7179C75.8337 41.6309 75.9224 41.5735 76.0372 41.5456L75.6771 40.601V40.4392L75.9641 38.743H77.1071V44.3274C77.1071 44.5501 77.1437 44.7049 77.2167 44.7919C77.2933 44.8789 77.4342 44.9224 77.6395 44.9224C77.803 44.9224 77.9474 44.9206 78.0726 44.9171C78.1979 44.9137 78.3127 44.9067 78.4171 44.8963V46.0653C78.2675 46.1071 78.0761 46.1297 77.843 46.1332C77.6099 46.1401 77.3802 46.1436 77.1541 46.1436ZM75.0038 41.5456V40.3713H78.4014V41.5456H75.0038ZM79.4167 46.0705V40.3713H80.6849L80.8206 42.5894L80.7163 42.2659C80.7476 41.9979 80.7998 41.744 80.8728 41.5039C80.9494 41.2638 81.052 41.0498 81.1807 40.8619C81.313 40.674 81.4748 40.5262 81.6661 40.4183C81.861 40.3105 82.0889 40.2565 82.3498 40.2565C82.4194 40.2565 82.489 40.26 82.5586 40.267C82.6316 40.2739 82.696 40.2861 82.7517 40.3035V41.817C82.6334 41.7822 82.5133 41.7596 82.3916 41.7492C82.2733 41.7353 82.1585 41.7283 82.0471 41.7283C81.8836 41.7283 81.7235 41.7509 81.567 41.7961C81.4104 41.8379 81.2712 41.904 81.1494 41.9945C81.0277 42.0815 80.932 42.1911 80.8624 42.3233V46.0705H79.4167ZM85.208 46.1854C84.7035 46.1854 84.3051 46.0149 84.0128 45.6739C83.7205 45.3294 83.5744 44.8215 83.5744 44.1499V40.3713H85.0201V43.7063C85.0201 44.0229 85.0497 44.2735 85.1088 44.4579C85.168 44.6388 85.2567 44.7675 85.375 44.8441C85.4968 44.9206 85.6464 44.9589 85.8238 44.9589C86.0604 44.9589 86.2744 44.8858 86.4658 44.7397C86.6606 44.5936 86.8015 44.4248 86.8885 44.2334V40.3713H88.329V46.0705H87.0712L86.9303 43.9203L87.0033 44.3535C86.9616 44.6666 86.8781 44.9624 86.7528 45.2407C86.631 45.5191 86.4466 45.747 86.1996 45.9244C85.9526 46.0984 85.622 46.1854 85.208 46.1854ZM92.132 46.1697C91.551 46.1697 91.0586 46.0462 90.655 45.7992C90.2514 45.5486 89.9452 45.2007 89.7365 44.7553C89.5312 44.3065 89.4286 43.7881 89.4286 43.2001C89.4286 42.5877 89.5347 42.0623 89.7469 41.6239C89.9626 41.1855 90.2688 40.8498 90.6655 40.6166C91.0621 40.3835 91.5301 40.267 92.0694 40.267C92.6017 40.267 93.0454 40.3609 93.4003 40.5488C93.7552 40.7367 94.0178 40.9924 94.1883 41.316C94.3623 41.6396 94.4388 42.0032 94.418 42.4068H93.0349C93.028 42.2502 93.0036 42.111 92.9619 41.9892C92.9201 41.8675 92.8592 41.7666 92.7792 41.6865C92.6992 41.603 92.6 41.5404 92.4817 41.4987C92.3634 41.4569 92.226 41.436 92.0694 41.436C91.6484 41.4326 91.3422 41.5822 91.1508 41.8849C90.963 42.1841 90.869 42.6138 90.869 43.174C90.869 43.8003 90.9786 44.2578 91.1978 44.5466C91.4205 44.8319 91.7493 44.9798 92.1842 44.9902C92.3164 44.9937 92.4504 44.9658 92.5861 44.9067C92.7253 44.8441 92.8401 44.7484 92.9305 44.6196C93.021 44.4909 93.0628 44.3291 93.0558 44.1343H94.4336C94.4441 44.5448 94.3519 44.9032 94.157 45.2094C93.9622 45.5156 93.689 45.7522 93.3376 45.9192C92.9897 46.0862 92.5878 46.1697 92.132 46.1697ZM97.2454 46.1436C96.7826 46.1436 96.4225 46.0271 96.165 45.7939C95.9076 45.5573 95.7788 45.2059 95.7788 44.7397L95.7684 42.031C95.7684 41.9092 95.7997 41.8048 95.8623 41.7179C95.925 41.6309 96.0137 41.5735 96.1285 41.5456L95.7684 40.601V40.4392L96.0554 38.743H97.1984V44.3274C97.1984 44.5501 97.2349 44.7049 97.308 44.7919C97.3846 44.8789 97.5255 44.9224 97.7308 44.9224C97.8943 44.9224 98.0387 44.9206 98.1639 44.9171C98.2892 44.9137 98.404 44.9067 98.5084 44.8963V46.0653C98.3588 46.1071 98.1674 46.1297 97.9343 46.1332C97.7012 46.1401 97.4715 46.1436 97.2454 46.1436ZM95.0951 41.5456V40.3713H98.4927V41.5456H95.0951ZM99.5284 46.0705V40.3713H100.969L100.964 46.0705H99.5284ZM100.254 39.6302C100.003 39.6302 99.7911 39.5433 99.6171 39.3693C99.4431 39.1953 99.3562 38.9726 99.3562 38.7012C99.3562 38.4299 99.4431 38.2089 99.6171 38.0384C99.7946 37.8645 100.007 37.7775 100.254 37.7775C100.501 37.7775 100.711 37.8645 100.885 38.0384C101.063 38.2089 101.152 38.4299 101.152 38.7012C101.152 38.9726 101.063 39.1953 100.885 39.3693C100.711 39.5433 100.501 39.6302 100.254 39.6302ZM104.735 46.1488C104.196 46.1488 103.726 46.0358 103.326 45.8096C102.926 45.5834 102.616 45.2512 102.397 44.8128C102.178 44.3709 102.068 43.8298 102.068 43.1896C102.068 42.5842 102.183 42.0623 102.413 41.6239C102.646 41.1855 102.966 40.8498 103.373 40.6166C103.78 40.38 104.241 40.2617 104.756 40.2617C105.313 40.2617 105.79 40.38 106.186 40.6166C106.586 40.8498 106.893 41.1855 107.105 41.6239C107.317 42.0623 107.423 42.5842 107.423 43.1896C107.423 43.8298 107.305 44.3709 107.068 44.8128C106.832 45.2512 106.51 45.5834 106.103 45.8096C105.699 46.0358 105.243 46.1488 104.735 46.1488ZM104.756 44.9432C105.111 44.9432 105.403 44.811 105.633 44.5466C105.866 44.2822 105.983 43.8298 105.983 43.1896C105.983 42.5947 105.866 42.1597 105.633 41.8849C105.4 41.6065 105.101 41.4673 104.735 41.4673C104.38 41.4673 104.088 41.6048 103.859 41.8796C103.629 42.1545 103.514 42.5912 103.514 43.1896C103.514 43.802 103.632 44.2474 103.869 44.5257C104.106 44.8041 104.401 44.9432 104.756 44.9432ZM108.529 46.0705V40.3713H109.797L109.933 42.5216L109.86 42.0884C109.902 41.7753 109.984 41.4795 110.105 41.2012C110.227 40.9193 110.41 40.6914 110.653 40.5175C110.9 40.3435 111.226 40.2565 111.629 40.2565C112.158 40.2565 112.576 40.4253 112.882 40.7628C113.188 41.0968 113.341 41.6083 113.341 42.2972V46.0705H111.901V42.8191C111.901 42.4746 111.868 42.2067 111.802 42.0153C111.739 41.8205 111.643 41.6831 111.515 41.603C111.389 41.523 111.229 41.483 111.034 41.483C110.798 41.483 110.584 41.5561 110.392 41.7022C110.205 41.8483 110.065 42.0171 109.975 42.2084V46.0705H108.529ZM116.614 46.0705V38.482H118.08V45.5591L117.25 44.7084H121.013V46.0705H116.614ZM123.361 46.1436C122.898 46.1436 122.538 46.0271 122.281 45.7939C122.023 45.5573 121.894 45.2059 121.894 44.7397L121.884 42.031C121.884 41.9092 121.915 41.8048 121.978 41.7179C122.041 41.6309 122.129 41.5735 122.244 41.5456L121.884 40.601V40.4392L122.171 38.743H123.314V44.3274C123.314 44.5501 123.351 44.7049 123.424 44.7919C123.5 44.8789 123.641 44.9224 123.846 44.9224C124.01 44.9224 124.154 44.9206 124.28 44.9171C124.405 44.9137 124.52 44.9067 124.624 44.8963V46.0653C124.474 46.1071 124.283 46.1297 124.05 46.1332C123.817 46.1401 123.587 46.1436 123.361 46.1436ZM121.211 41.5456V40.3713H124.608V41.5456H121.211ZM127.573 46.1384C127.107 46.1384 126.71 46.0149 126.383 45.7678C126.06 45.5173 125.815 45.1711 125.648 44.7292C125.481 44.2874 125.397 43.7759 125.397 43.1948C125.397 42.5651 125.498 42.0327 125.7 41.5978C125.902 41.1629 126.173 40.8324 126.514 40.6062C126.855 40.38 127.234 40.267 127.652 40.267C127.979 40.267 128.248 40.3226 128.461 40.434C128.673 40.5418 128.836 40.6793 128.951 40.8463C129.066 41.0133 129.141 41.1786 129.176 41.3421L129.447 41.6448L129.108 42.0519C129.076 41.9405 129.019 41.8414 128.936 41.7544C128.856 41.6639 128.746 41.5926 128.607 41.5404C128.471 41.4882 128.301 41.4621 128.095 41.4621C127.716 41.4621 127.413 41.603 127.187 41.8849C126.961 42.1667 126.848 42.6121 126.848 43.2209C126.848 43.7846 126.954 44.216 127.166 44.5153C127.379 44.811 127.671 44.9589 128.043 44.9589C128.255 44.9589 128.436 44.9258 128.586 44.8597C128.739 44.7901 128.859 44.7101 128.946 44.6196C129.036 44.5257 129.09 44.4422 129.108 44.3691L129.17 44.4892L129.108 44.7606C129.076 44.9206 129.026 45.0824 128.956 45.2459C128.887 45.4095 128.793 45.5591 128.675 45.6948C128.556 45.827 128.407 45.9348 128.226 46.0184C128.048 46.0984 127.831 46.1384 127.573 46.1384ZM129.113 46.0705L129.108 37.9497H130.543V46.0705H129.113ZM132.459 46.1488C132.222 46.1488 132.021 46.0636 131.854 45.8931C131.687 45.7226 131.603 45.5017 131.603 45.2303C131.603 44.9658 131.687 44.7501 131.854 44.5831C132.021 44.4126 132.222 44.3274 132.459 44.3274C132.696 44.3274 132.897 44.4126 133.064 44.5831C133.231 44.7501 133.315 44.9676 133.315 45.2355C133.315 45.5034 133.231 45.7226 133.064 45.8931C132.897 46.0636 132.696 46.1488 132.459 46.1488Z" fill="white"/>
<path d="M22.311 15.4547L6.72314 31.0425V50.6832H37.8989V31.0425L22.311 15.4547Z" fill="#F03A00" stroke="white" stroke-width="1.00032" stroke-linejoin="round"/>
</svg>
