<svg width="20" height="20" viewBox="0 0 20 20" fill="none" xmlns="http://www.w3.org/2000/svg">
<path d="M13.75 1.25C14.4404 1.25 15 1.80964 15 2.5V17.5C15 18.1904 14.4404 18.75 13.75 18.75H6.25C5.55964 18.75 5 18.1904 5 17.5V2.5C5 1.80964 5.55964 1.25 6.25 1.25H13.75ZM6.25 0C4.86929 0 3.75 1.11929 3.75 2.5V17.5C3.75 18.8807 4.86929 20 6.25 20H13.75C15.1307 20 16.25 18.8807 16.25 17.5V2.5C16.25 1.11929 15.1307 0 13.75 0H6.25Z" fill="white"/>
<path d="M10 17.5C10.6904 17.5 11.25 16.9404 11.25 16.25C11.25 15.5596 10.6904 15 10 15C9.30964 15 8.75 15.5596 8.75 16.25C8.75 16.9404 9.30964 17.5 10 17.5Z" fill="white"/>
</svg>
