<svg width="29" height="29" viewBox="0 0 29 29" fill="none" xmlns="http://www.w3.org/2000/svg">
<path d="M24.7084 4.10549C22.072 1.4557 18.5568 0 14.8136 0C7.10577 0 0.826804 6.27898 0.820096 13.9868C0.820096 16.4555 1.46409 18.8571 2.685 20.9836L0.706055 28.2353L8.12544 26.2899C10.1715 27.4035 12.4724 27.9938 14.8136 27.9938H14.8203C22.5282 27.9938 28.8071 21.7148 28.8138 14.0003C28.8071 10.2637 27.3514 6.74856 24.7084 4.10549ZM14.8136 25.6258C12.7206 25.6258 10.6746 25.0623 8.89018 24.0023L8.46756 23.7474L4.06691 24.9013L5.24087 20.6079L4.96583 20.1652C3.79858 18.3137 3.18813 16.1737 3.18813 13.9801C3.18813 7.58039 8.40718 2.36133 14.8203 2.36133C17.9263 2.36133 20.8444 3.57553 23.0447 5.76915C25.2383 7.96948 26.4458 10.8876 26.4458 13.9935C26.4391 20.4134 21.22 25.6258 14.8136 25.6258ZM21.1932 16.9184C20.8444 16.744 19.127 15.8987 18.8051 15.778C18.4831 15.6639 18.2483 15.6035 18.0202 15.9524C17.7854 16.3012 17.1146 17.0928 16.9133 17.3209C16.7121 17.5557 16.5041 17.5825 16.1553 17.4081C15.8064 17.2337 14.6794 16.8647 13.3445 15.6706C12.3047 14.7449 11.607 13.5978 11.3991 13.2489C11.1978 12.9001 11.379 12.7123 11.5534 12.5378C11.7077 12.3835 11.9022 12.1286 12.0766 11.9274C12.251 11.7261 12.3114 11.5786 12.4255 11.3438C12.5395 11.109 12.4858 10.9077 12.3986 10.7333C12.3114 10.5589 11.6138 8.83485 11.3186 8.13719C11.0368 7.45294 10.7484 7.54685 10.5337 7.54015C10.3325 7.52673 10.0977 7.52673 9.86289 7.52673C9.6281 7.52673 9.25243 7.61394 8.93043 7.96277C8.60843 8.3116 7.70952 9.15685 7.70952 10.8809C7.70952 12.6049 8.96397 14.2619 9.13839 14.4967C9.31281 14.7315 11.6003 18.26 15.1088 19.7761C15.9406 20.1384 16.5913 20.353 17.1011 20.514C17.9397 20.7824 18.6977 20.7421 19.3015 20.6549C19.9723 20.5543 21.3676 19.8097 21.6628 18.9912C21.9512 18.1728 21.9512 17.4752 21.864 17.3276C21.7768 17.18 21.542 17.0928 21.1932 16.9184Z" fill="white"/>
</svg>
