<svg width="134" height="52" viewBox="0 0 134 52" fill="none" xmlns="http://www.w3.org/2000/svg">
<path d="M44.4921 22.746L22.746 1L1 22.746V50.146H44.4921" stroke="#3D1766" stroke-width="2.00063" stroke-linecap="round" stroke-linejoin="round"/>
<path d="M45.5723 34.6603V27.0718H47.0337V34.6603H45.5723ZM41.3554 34.6603V27.0718H42.8167V34.6603H41.3554ZM42.3783 31.4193V30.1145H45.8124L45.802 31.4193H42.3783ZM50.7814 34.7386C50.2421 34.7386 49.7724 34.6255 49.3723 34.3994C48.9722 34.1732 48.6625 33.8409 48.4433 33.4025C48.2241 32.9607 48.1145 32.4196 48.1145 31.7794C48.1145 31.174 48.2293 30.6521 48.459 30.2137C48.6921 29.7753 49.0122 29.4395 49.4193 29.2064C49.8264 28.9698 50.2874 28.8515 50.8023 28.8515C51.359 28.8515 51.8357 28.9698 52.2323 29.2064C52.6325 29.4395 52.9386 29.7753 53.1509 30.2137C53.3631 30.6521 53.4693 31.174 53.4693 31.7794C53.4693 32.4196 53.351 32.9607 53.1144 33.4025C52.8778 33.8409 52.5559 34.1732 52.1488 34.3994C51.7452 34.6255 51.2894 34.7386 50.7814 34.7386ZM50.8023 33.533C51.1572 33.533 51.4495 33.4008 51.6791 33.1364C51.9122 32.8719 52.0288 32.4196 52.0288 31.7794C52.0288 31.1844 51.9122 30.7495 51.6791 30.4746C51.446 30.1963 51.1468 30.0571 50.7814 30.0571C50.4265 30.0571 50.1343 30.1946 49.9046 30.4694C49.675 30.7443 49.5602 31.181 49.5602 31.7794C49.5602 32.3918 49.6785 32.8371 49.9151 33.1155C50.1517 33.3938 50.4474 33.533 50.8023 33.533ZM54.5651 34.6603V28.9611H55.8333L55.969 31.1114L55.8959 30.6782C55.9377 30.365 56.016 30.0693 56.1308 29.7909C56.2491 29.5091 56.4265 29.2812 56.6631 29.1073C56.9032 28.9333 57.2251 28.8463 57.6287 28.8463C58.081 28.8463 58.4515 28.9803 58.7403 29.2482C59.0326 29.5126 59.2118 29.9214 59.2779 30.4746L59.2988 30.6625V34.6603H57.8531V31.4089C57.8531 31.0644 57.8218 30.7965 57.7591 30.6051C57.7 30.4103 57.6113 30.2728 57.493 30.1928C57.3747 30.1128 57.2268 30.0728 57.0494 30.0728C56.8093 30.0728 56.5988 30.1458 56.4179 30.292C56.2369 30.4381 56.1012 30.6069 56.0108 30.7982V34.6603H54.5651ZM61.1359 34.6603V31.4089C61.1359 31.0644 61.1046 30.7965 61.0419 30.6051C60.9828 30.4103 60.8941 30.2728 60.7758 30.1928C60.6575 30.1128 60.5096 30.0728 60.3321 30.0728C60.0921 30.0728 59.8816 30.1458 59.7006 30.292C59.5232 30.4381 59.3892 30.6069 59.2988 30.7982L59.2779 31.1114L59.2205 30.7408C59.2553 30.4381 59.3283 30.1424 59.4397 29.8536C59.551 29.5613 59.7232 29.3212 59.9564 29.1333C60.193 28.942 60.5113 28.8463 60.9115 28.8463C61.4229 28.8463 61.8283 29.015 62.1275 29.3525C62.4302 29.6866 62.5815 30.198 62.5815 30.8869V34.6603H61.1359ZM66.3416 34.7386C65.778 34.7386 65.2943 34.6255 64.8907 34.3994C64.4871 34.1697 64.1775 33.8375 63.9617 33.4025C63.746 32.9641 63.6382 32.4318 63.6382 31.8055C63.6382 31.1723 63.7512 30.6364 63.9774 30.198C64.207 29.7596 64.5254 29.4256 64.9325 29.196C65.343 28.9663 65.8197 28.8515 66.3625 28.8515C66.8914 28.8515 67.3385 28.9542 67.7038 29.1594C68.0726 29.3612 68.3527 29.6622 68.5441 30.0623C68.7354 30.459 68.8311 30.9461 68.8311 31.5237C68.8311 31.6176 68.8276 31.7063 68.8207 31.7898C68.8172 31.8733 68.812 31.9725 68.805 32.0873H65.0577C65.0925 32.6092 65.2195 32.992 65.4387 33.2355C65.6614 33.4791 65.9502 33.6009 66.3051 33.6009C66.6182 33.6009 66.8566 33.533 67.0201 33.3973C67.1836 33.2616 67.2863 33.0963 67.328 32.9015H68.7111C68.6798 33.2808 68.5615 33.6096 68.3562 33.8879C68.1544 34.1628 67.8812 34.3733 67.5368 34.5194C67.1958 34.6655 66.7974 34.7386 66.3416 34.7386ZM65.6736 31.2053H67.4272C67.4133 30.8156 67.3176 30.5199 67.1401 30.3181C66.9662 30.1163 66.6878 30.0154 66.3051 30.0154C65.8841 30.0154 65.5727 30.1615 65.3709 30.4538C65.1726 30.7426 65.0647 31.1496 65.0473 31.675C65.0751 31.4941 65.1395 31.3706 65.2404 31.3045C65.3413 31.2384 65.4857 31.2053 65.6736 31.2053ZM69.897 34.6603V27.0718H72.2769L73.3364 31.0748L73.6965 32.5101H73.7226L74.0931 31.0748L75.1265 27.0718H77.5168V34.6603H76.0816V30.5842L76.2016 28.3505H76.1599L75.4971 30.5425L74.2288 34.6603H73.2163L71.9168 30.5425L71.254 28.3505H71.207L71.327 30.5842V34.6603H69.897ZM80.4233 34.7229C80.0893 34.7229 79.7884 34.6603 79.5205 34.5351C79.256 34.4098 79.0473 34.2289 78.8942 33.9923C78.7446 33.7557 78.6697 33.4756 78.6697 33.152C78.6697 32.811 78.7359 32.5309 78.8681 32.3117C79.0003 32.0891 79.1847 31.9134 79.4213 31.7846C79.6579 31.6524 79.931 31.555 80.2407 31.4924C80.4564 31.4471 80.6791 31.4106 80.9087 31.3828C81.1418 31.3514 81.3593 31.3271 81.5611 31.3097C81.7629 31.2923 81.9264 31.2784 82.0517 31.2679V31.0748C82.0517 30.7025 81.9838 30.4329 81.8482 30.2659C81.7125 30.0954 81.4793 30.0101 81.1488 30.0101C80.9366 30.0101 80.7574 30.038 80.6112 30.0937C80.4686 30.1493 80.3607 30.2502 80.2877 30.3964C80.2146 30.5425 80.1781 30.753 80.1781 31.0279H78.8315C78.7933 30.5303 78.8681 30.1215 79.056 29.8014C79.2473 29.4813 79.5274 29.2447 79.8962 29.0916C80.2685 28.935 80.7052 28.8567 81.2062 28.8567C81.502 28.8567 81.7838 28.8898 82.0517 28.9559C82.3231 29.0185 82.5632 29.1281 82.7719 29.2847C82.9842 29.4378 83.1512 29.6483 83.273 29.9162C83.3982 30.1841 83.4608 30.5234 83.4608 30.9339V34.6603H82.0413L82.0517 33.3556C81.9891 33.7383 81.829 34.0619 81.5715 34.3263C81.3141 34.5907 80.9313 34.7229 80.4233 34.7229ZM80.8617 33.7157C81.0392 33.7157 81.2114 33.6844 81.3784 33.6217C81.5489 33.5556 81.6951 33.4652 81.8168 33.3503C81.9421 33.2355 82.0204 33.1033 82.0517 32.9537V31.9882C81.9125 32.009 81.7612 32.0334 81.5976 32.0612C81.4341 32.0891 81.2915 32.1169 81.1697 32.1447C80.8009 32.2213 80.5416 32.3274 80.392 32.4631C80.2459 32.5953 80.1728 32.7815 80.1728 33.0215C80.1728 33.1642 80.2007 33.2877 80.2563 33.3921C80.3155 33.4965 80.3973 33.5765 80.5016 33.6322C80.6095 33.6878 80.7295 33.7157 80.8617 33.7157ZM86.718 34.7282C86.2518 34.7282 85.8551 34.6047 85.5281 34.3576C85.2045 34.1071 84.9592 33.7609 84.7922 33.319C84.6252 32.8771 84.5417 32.3657 84.5417 31.7846C84.5417 31.1549 84.6426 30.6225 84.8444 30.1876C85.0462 29.7527 85.3176 29.4221 85.6585 29.196C85.9995 28.9698 86.3788 28.8567 86.7963 28.8567C87.1234 28.8567 87.393 28.9124 87.6053 29.0237C87.8175 29.1316 87.981 29.269 88.0958 29.4361C88.2107 29.6031 88.2855 29.7683 88.3203 29.9319L88.5917 30.2346L88.2524 30.6417C88.2211 30.5303 88.1637 30.4312 88.0802 30.3442C88.0002 30.2537 87.8906 30.1824 87.7514 30.1302C87.6157 30.078 87.4452 30.0519 87.2399 30.0519C86.8607 30.0519 86.558 30.1928 86.3318 30.4746C86.1056 30.7565 85.9926 31.2018 85.9926 31.8107C85.9926 32.3744 86.0987 32.8058 86.3109 33.105C86.5232 33.4008 86.8154 33.5487 87.1877 33.5487C87.4 33.5487 87.5809 33.5156 87.7305 33.4495C87.8836 33.3799 88.0036 33.2999 88.0906 33.2094C88.1811 33.1155 88.235 33.032 88.2524 32.9589L88.315 33.0789L88.2524 33.3503C88.2211 33.5104 88.1706 33.6722 88.1011 33.8357C88.0315 33.9992 87.9375 34.1489 87.8192 34.2845C87.7009 34.4168 87.5513 34.5246 87.3704 34.6081C87.1929 34.6882 86.9755 34.7282 86.718 34.7282ZM88.2576 34.6603L88.2524 26.5395H89.6877V34.6603H88.2576ZM93.4664 34.7386C92.9027 34.7386 92.4191 34.6255 92.0155 34.3994C91.6119 34.1697 91.3022 33.8375 91.0865 33.4025C90.8708 32.9641 90.7629 32.4318 90.7629 31.8055C90.7629 31.1723 90.876 30.6364 91.1022 30.198C91.3318 29.7596 91.6502 29.4256 92.0573 29.196C92.4678 28.9663 92.9445 28.8515 93.4873 28.8515C94.0161 28.8515 94.4632 28.9542 94.8286 29.1594C95.1974 29.3612 95.4775 29.6622 95.6688 30.0623C95.8602 30.459 95.9559 30.9461 95.9559 31.5237C95.9559 31.6176 95.9524 31.7063 95.9455 31.7898C95.942 31.8733 95.9368 31.9725 95.9298 32.0873H92.1825C92.2173 32.6092 92.3443 32.992 92.5635 33.2355C92.7862 33.4791 93.075 33.6009 93.4299 33.6009C93.743 33.6009 93.9813 33.533 94.1449 33.3973C94.3084 33.2616 94.4111 33.0963 94.4528 32.9015H95.8359C95.8045 33.2808 95.6862 33.6096 95.481 33.8879C95.2792 34.1628 95.006 34.3733 94.6616 34.5194C94.3206 34.6655 93.9222 34.7386 93.4664 34.7386ZM92.7984 31.2053H94.552C94.538 30.8156 94.4424 30.5199 94.2649 30.3181C94.0909 30.1163 93.8126 30.0154 93.4299 30.0154C93.0089 30.0154 92.6975 30.1615 92.4957 30.4538C92.2973 30.7426 92.1895 31.1496 92.1721 31.675C92.1999 31.4941 92.2643 31.3706 92.3652 31.3045C92.4661 31.2384 92.6105 31.2053 92.7984 31.2053ZM100.016 34.6603V33.2981H101.033C101.517 33.2981 101.929 33.2146 102.27 33.0476C102.615 32.8771 102.878 32.6092 103.058 32.2439C103.239 31.8786 103.33 31.4002 103.33 30.8087C103.33 30.2102 103.239 29.7353 103.058 29.3839C102.881 29.0324 102.622 28.7819 102.281 28.6323C101.94 28.4792 101.522 28.4027 101.028 28.4027H99.974V27.0718H101.18C101.935 27.0718 102.585 27.2093 103.132 27.4841C103.681 27.759 104.104 28.1713 104.4 28.721C104.699 29.2708 104.849 29.9614 104.849 30.793C104.849 31.6211 104.694 32.3222 104.384 32.8963C104.074 33.4704 103.646 33.9088 103.1 34.2115C102.554 34.5107 101.924 34.6603 101.211 34.6603H100.016ZM98.8362 34.6603V27.0718H100.303V34.6603H98.8362ZM108.318 34.7386C107.755 34.7386 107.271 34.6255 106.867 34.3994C106.464 34.1697 106.154 33.8375 105.938 33.4025C105.723 32.9641 105.615 32.4318 105.615 31.8055C105.615 31.1723 105.728 30.6364 105.954 30.198C106.184 29.7596 106.502 29.4256 106.909 29.196C107.32 28.9663 107.796 28.8515 108.339 28.8515C108.868 28.8515 109.315 28.9542 109.68 29.1594C110.049 29.3612 110.329 29.6622 110.521 30.0623C110.712 30.459 110.808 30.9461 110.808 31.5237C110.808 31.6176 110.804 31.7063 110.797 31.7898C110.794 31.8733 110.789 31.9725 110.782 32.0873H107.034C107.069 32.6092 107.196 32.992 107.415 33.2355C107.638 33.4791 107.927 33.6009 108.282 33.6009C108.595 33.6009 108.833 33.533 108.997 33.3973C109.16 33.2616 109.263 33.0963 109.305 32.9015H110.688C110.656 33.2808 110.538 33.6096 110.333 33.8879C110.131 34.1628 109.858 34.3733 109.513 34.5194C109.172 34.6655 108.774 34.7386 108.318 34.7386ZM107.65 31.2053H109.404C109.39 30.8156 109.294 30.5199 109.117 30.3181C108.943 30.1163 108.664 30.0154 108.282 30.0154C107.861 30.0154 107.549 30.1615 107.348 30.4538C107.149 30.7426 107.041 31.1496 107.024 31.675C107.052 31.4941 107.116 31.3706 107.217 31.3045C107.318 31.2384 107.462 31.2053 107.65 31.2053ZM113.973 34.749C113.51 34.749 113.106 34.6812 112.762 34.5455C112.418 34.4098 112.146 34.2045 111.948 33.9297C111.753 33.6513 111.645 33.2964 111.624 32.865H113.023C113.061 33.1503 113.164 33.3573 113.331 33.486C113.498 33.6113 113.714 33.6739 113.978 33.6739C114.138 33.6739 114.286 33.6565 114.422 33.6217C114.557 33.5869 114.665 33.5278 114.745 33.4443C114.829 33.3608 114.87 33.246 114.87 33.0998C114.87 32.9885 114.844 32.898 114.792 32.8284C114.74 32.7554 114.662 32.6945 114.557 32.6458C114.456 32.5936 114.331 32.5449 114.182 32.4996C114.032 32.4544 113.86 32.404 113.665 32.3483C113.32 32.2474 113.004 32.1273 112.715 31.9882C112.426 31.8455 112.195 31.6576 112.021 31.4245C111.847 31.1914 111.76 30.8869 111.76 30.5112C111.76 29.9719 111.958 29.563 112.355 29.2847C112.752 29.0029 113.268 28.862 113.905 28.862C114.295 28.862 114.646 28.9159 114.959 29.0237C115.272 29.1316 115.53 29.3178 115.732 29.5822C115.937 29.8466 116.067 30.2137 116.123 30.6834L114.735 30.6782C114.693 30.4625 114.627 30.3007 114.536 30.1928C114.449 30.0815 114.349 30.0067 114.234 29.9684C114.122 29.9301 114.004 29.911 113.879 29.911C113.74 29.911 113.614 29.9336 113.503 29.9788C113.395 30.0206 113.312 30.0832 113.253 30.1667C113.193 30.2502 113.164 30.3511 113.164 30.4694C113.164 30.6156 113.206 30.7373 113.289 30.8348C113.376 30.9322 113.507 31.0174 113.681 31.0905C113.858 31.1601 114.079 31.2349 114.343 31.3149C114.538 31.3671 114.747 31.428 114.97 31.4976C115.192 31.5672 115.403 31.6611 115.601 31.7794C115.799 31.8942 115.961 32.0508 116.086 32.2491C116.215 32.444 116.28 32.698 116.28 33.0111C116.28 33.5574 116.071 33.9836 115.653 34.2898C115.236 34.596 114.676 34.749 113.973 34.749ZM117.357 34.6603V28.9611H118.797L118.792 34.6603H117.357ZM118.082 28.22C117.832 28.22 117.619 28.133 117.445 27.9591C117.272 27.7851 117.185 27.5624 117.185 27.291C117.185 27.0196 117.272 26.7987 117.445 26.6282C117.623 26.4542 117.835 26.3673 118.082 26.3673C118.329 26.3673 118.54 26.4542 118.714 26.6282C118.891 26.7987 118.98 27.0196 118.98 27.291C118.98 27.5624 118.891 27.7851 118.714 27.9591C118.54 28.133 118.329 28.22 118.082 28.22ZM122.575 36.9932C122.06 37.0002 121.609 36.9202 121.223 36.7532C120.84 36.5896 120.55 36.3496 120.352 36.0329C120.157 35.7198 120.082 35.344 120.127 34.9056H121.521C121.521 35.0831 121.547 35.2414 121.599 35.3805C121.651 35.5197 121.756 35.6293 121.912 35.7093C122.069 35.7929 122.297 35.8346 122.596 35.8346C122.867 35.8346 123.074 35.7963 123.217 35.7198C123.363 35.6467 123.464 35.5319 123.52 35.3753C123.575 35.2188 123.603 35.0204 123.603 34.7804V33.2042C123.561 33.4408 123.481 33.6548 123.363 33.8461C123.245 34.034 123.079 34.1819 122.867 34.2898C122.655 34.3976 122.384 34.4516 122.053 34.4516C121.712 34.4516 121.408 34.3785 121.14 34.2324C120.875 34.0862 120.651 33.8879 120.466 33.6374C120.282 33.3834 120.141 33.0929 120.044 32.7658C119.95 32.4387 119.903 32.096 119.903 31.7377C119.903 31.1114 120.002 30.586 120.2 30.1615C120.402 29.7335 120.668 29.41 120.999 29.1908C121.333 28.9681 121.702 28.8567 122.105 28.8567C122.404 28.8567 122.655 28.9002 122.857 28.9872C123.059 29.0707 123.22 29.1786 123.342 29.3108C123.467 29.443 123.56 29.5804 123.619 29.7231L123.65 28.9663H125.028V34.6916C125.028 35.2031 124.929 35.6276 124.73 35.9651C124.536 36.3061 124.255 36.5601 123.89 36.7271C123.525 36.8976 123.086 36.9863 122.575 36.9932ZM122.538 33.2825C122.754 33.2825 122.935 33.2564 123.081 33.2042C123.227 33.1485 123.342 33.0807 123.426 33.0007C123.513 32.9172 123.572 32.8371 123.603 32.7606V30.5947C123.568 30.4973 123.506 30.4085 123.415 30.3285C123.328 30.2485 123.213 30.1824 123.071 30.1302C122.932 30.078 122.765 30.0519 122.57 30.0519C122.204 30.0519 121.912 30.1859 121.693 30.4538C121.474 30.7217 121.364 31.1375 121.364 31.7011C121.364 32.2021 121.468 32.5918 121.677 32.8702C121.886 33.1451 122.173 33.2825 122.538 33.2825ZM126.439 34.6603V28.9611H127.707L127.843 31.1114L127.77 30.6782C127.812 30.365 127.894 30.0693 128.015 29.7909C128.137 29.5091 128.32 29.2812 128.563 29.1073C128.81 28.9333 129.136 28.8463 129.539 28.8463C130.068 28.8463 130.486 29.015 130.792 29.3525C131.098 29.6866 131.251 30.198 131.251 30.8869V34.6603H129.811V31.4089C129.811 31.0644 129.778 30.7965 129.711 30.6051C129.649 30.4103 129.553 30.2728 129.424 30.1928C129.299 30.1128 129.139 30.0728 128.944 30.0728C128.708 30.0728 128.494 30.1458 128.302 30.292C128.114 30.4381 127.975 30.6069 127.885 30.7982V34.6603H126.439Z" fill="#3D1766"/>
<path d="M44.1058 45.1976C43.6048 45.1976 43.1629 45.1384 42.7802 45.0201C42.4009 44.8984 42.0825 44.7348 41.8251 44.5295C41.5711 44.3243 41.3797 44.0929 41.251 43.8354C41.1222 43.5745 41.0579 43.3065 41.0579 43.0317C41.0579 42.6803 41.1222 42.3897 41.251 42.1601C41.3797 41.927 41.5485 41.7408 41.7572 41.6017C41.966 41.4625 42.1921 41.3616 42.4357 41.2989C42.6827 41.2363 42.9228 41.1998 43.1559 41.1893L44.0484 40.9336C44.3406 40.8258 44.5546 40.6779 44.6903 40.49C44.8295 40.3021 44.9182 40.1038 44.9565 39.895C44.9982 39.6828 45.0191 39.4914 45.0191 39.3209C45.0191 39.1852 44.993 39.0582 44.9408 38.9399C44.8886 38.8182 44.7999 38.719 44.6747 38.6425C44.5529 38.5659 44.3807 38.5276 44.158 38.5276C43.9353 38.5276 43.7561 38.5694 43.6204 38.6529C43.4882 38.7364 43.3908 38.8408 43.3282 38.966C43.269 39.0913 43.2394 39.2165 43.2394 39.3418C43.2394 39.5366 43.2777 39.7193 43.3542 39.8898C43.4343 40.0568 43.5421 40.2186 43.6778 40.3752C43.8135 40.5317 43.9649 40.6918 44.1319 40.8553L44.2937 41.0276L46.256 43.1569L46.6162 43.5327L48.0253 45.1036H46.3917L45.7968 44.4304L45.421 43.9815L43.1194 41.3825L42.9524 41.2102C42.7888 41.0502 42.6201 40.8779 42.4461 40.6935C42.2756 40.5091 42.1312 40.3004 42.013 40.0673C41.8947 39.8341 41.8355 39.568 41.8355 39.2687C41.8355 38.8964 41.9347 38.5694 42.133 38.2876C42.3313 38.0022 42.6079 37.7796 42.9628 37.6195C43.3212 37.4595 43.7352 37.3794 44.205 37.3794C44.6086 37.3794 44.9756 37.456 45.3062 37.6091C45.6402 37.7587 45.9081 37.9709 46.1099 38.2458C46.3152 38.5207 46.4178 38.8425 46.4178 39.2113C46.4178 39.5106 46.3395 39.7802 46.183 40.0203C46.0299 40.2569 45.7846 40.4604 45.4471 40.6309C45.1096 40.7979 44.6625 40.9284 44.1058 41.0223L43.2186 41.252C43.0133 41.3146 42.8532 41.419 42.7384 41.5651C42.6271 41.7113 42.5505 41.88 42.5088 42.0714C42.467 42.2627 42.4461 42.4645 42.4461 42.6768C42.4461 42.9029 42.5122 43.1169 42.6445 43.3187C42.7767 43.5205 42.9733 43.6858 43.2342 43.8145C43.4986 43.9398 43.8205 44.0024 44.1997 44.0024C44.4746 44.0024 44.7008 43.9798 44.8782 43.9346C45.0591 43.8859 45.2087 43.8267 45.327 43.7571C45.4488 43.6841 45.5584 43.6127 45.6558 43.5431L46.0942 43.1256C46.1778 43.0073 46.2404 42.8681 46.2821 42.7081C46.3274 42.548 46.3587 42.3758 46.3761 42.1914C46.3935 42.007 46.4022 41.8139 46.4022 41.6121L47.7382 41.6069C47.7382 41.9374 47.6982 42.2593 47.6182 42.5724C47.5382 42.8821 47.4286 43.1621 47.2894 43.4127C47.1502 43.6632 46.9919 43.8615 46.8145 44.0076L46.4283 44.2947C46.2056 44.6009 45.8907 44.8288 45.4836 44.9784C45.0765 45.1245 44.6173 45.1976 44.1058 45.1976ZM53.819 45.208C53.1266 45.208 52.5229 45.0549 52.008 44.7487C51.4965 44.4426 51.0981 43.9972 50.8128 43.4127C50.531 42.8247 50.3901 42.1131 50.3901 41.2781C50.3901 40.4743 50.5275 39.7802 50.8024 39.1957C51.0807 38.6111 51.4774 38.1606 51.9923 37.8439C52.5108 37.5273 53.1284 37.369 53.8451 37.369C54.3635 37.369 54.8385 37.4682 55.2699 37.6665C55.7013 37.8648 56.0475 38.1606 56.3085 38.5537C56.5729 38.9469 56.7086 39.434 56.7156 40.0151H55.2229C55.2125 39.7054 55.1394 39.4566 55.0037 39.2687C54.868 39.0809 54.6906 38.9452 54.4714 38.8617C54.2522 38.7781 54.0121 38.7364 53.7512 38.7364C53.3928 38.7364 53.0727 38.8303 52.7909 39.0182C52.5125 39.2061 52.2916 39.4897 52.128 39.8689C51.9645 40.2482 51.8827 40.7249 51.8827 41.2989C51.8827 41.9078 51.9662 42.4002 52.1333 42.7759C52.3003 43.1482 52.5264 43.4196 52.8117 43.5901C53.097 43.7571 53.4171 43.8406 53.772 43.8406C54.1061 43.8406 54.3792 43.7919 54.5914 43.6945C54.8037 43.5936 54.962 43.4562 55.0664 43.2822C55.1707 43.1082 55.2264 42.9099 55.2334 42.6872H56.726C56.7156 43.2056 56.5868 43.6545 56.3398 44.0337C56.0963 44.4095 55.7588 44.7 55.3273 44.9053C54.8959 45.1071 54.3931 45.208 53.819 45.208ZM60.1085 45.1767C59.5692 45.1767 59.0994 45.0636 58.6993 44.8375C58.2992 44.6113 57.9895 44.279 57.7703 43.8406C57.5511 43.3987 57.4415 42.8577 57.4415 42.2175C57.4415 41.6121 57.5563 41.0902 57.786 40.6518C58.0191 40.2134 58.3392 39.8776 58.7463 39.6445C59.1534 39.4079 59.6144 39.2896 60.1293 39.2896C60.686 39.2896 61.1627 39.4079 61.5593 39.6445C61.9595 39.8776 62.2657 40.2134 62.4779 40.6518C62.6901 41.0902 62.7963 41.6121 62.7963 42.2175C62.7963 42.8577 62.678 43.3987 62.4414 43.8406C62.2048 44.279 61.8829 44.6113 61.4758 44.8375C61.0722 45.0636 60.6164 45.1767 60.1085 45.1767ZM60.1293 43.9711C60.4842 43.9711 60.7765 43.8389 61.0061 43.5745C61.2392 43.31 61.3558 42.8577 61.3558 42.2175C61.3558 41.6225 61.2392 41.1876 61.0061 40.9127C60.773 40.6344 60.4738 40.4952 60.1085 40.4952C59.7536 40.4952 59.4613 40.6326 59.2317 40.9075C59.002 41.1824 58.8872 41.619 58.8872 42.2175C58.8872 42.8299 59.0055 43.2752 59.2421 43.5536C59.4787 43.8319 59.7744 43.9711 60.1293 43.9711ZM63.9023 45.0984V39.3992H65.1705L65.3062 41.5495L65.2331 41.1163C65.2749 40.8031 65.3567 40.5074 65.4784 40.229C65.6002 39.9472 65.7829 39.7193 66.0264 39.5453C66.2735 39.3714 66.5988 39.2844 67.0024 39.2844C67.5313 39.2844 67.9488 39.4531 68.255 39.7906C68.5612 40.1247 68.7143 40.6361 68.7143 41.325V45.0984H67.2738V41.8469C67.2738 41.5025 67.2407 41.2346 67.1746 41.0432C67.112 40.8484 67.0163 40.7109 66.8876 40.6309C66.7623 40.5509 66.6023 40.5109 66.4074 40.5109C66.1708 40.5109 65.9569 40.5839 65.7655 40.7301C65.5776 40.8762 65.4384 41.045 65.348 41.2363V45.0984H63.9023ZM72.0573 45.1871C71.5945 45.1871 71.1909 45.1193 70.8465 44.9836C70.502 44.8479 70.2306 44.6426 70.0323 44.3677C69.8375 44.0894 69.7296 43.7345 69.7087 43.3031H71.1074C71.1457 43.5884 71.2483 43.7954 71.4154 43.9241C71.5824 44.0494 71.7981 44.112 72.0625 44.112C72.2226 44.112 72.3704 44.0946 72.5061 44.0598C72.6418 44.025 72.7497 43.9659 72.8297 43.8824C72.9132 43.7989 72.955 43.6841 72.955 43.5379C72.955 43.4266 72.9289 43.3361 72.8767 43.2665C72.8245 43.1935 72.7462 43.1326 72.6418 43.0839C72.5409 43.0317 72.4157 42.983 72.2661 42.9377C72.1164 42.8925 71.9442 42.842 71.7494 42.7864C71.4049 42.6855 71.0883 42.5654 70.7995 42.4263C70.5107 42.2836 70.2793 42.0957 70.1054 41.8626C69.9314 41.6295 69.8444 41.325 69.8444 40.9493C69.8444 40.41 70.0427 40.0011 70.4394 39.7228C70.836 39.441 71.3527 39.3001 71.9895 39.3001C72.3791 39.3001 72.7306 39.354 73.0437 39.4618C73.3568 39.5697 73.6143 39.7558 73.8161 40.0203C74.0214 40.2847 74.1519 40.6518 74.2075 41.1215L72.8193 41.1163C72.7775 40.9006 72.7114 40.7388 72.621 40.6309C72.534 40.5196 72.4331 40.4448 72.3183 40.4065C72.2069 40.3682 72.0886 40.3491 71.9634 40.3491C71.8242 40.3491 71.6989 40.3717 71.5876 40.4169C71.4797 40.4587 71.3962 40.5213 71.3371 40.6048C71.2779 40.6883 71.2483 40.7892 71.2483 40.9075C71.2483 41.0537 71.2901 41.1754 71.3736 41.2729C71.4606 41.3703 71.5911 41.4555 71.765 41.5286C71.9425 41.5982 72.1634 41.673 72.4279 41.753C72.6227 41.8052 72.8315 41.8661 73.0541 41.9357C73.2768 42.0053 73.4873 42.0992 73.6856 42.2175C73.884 42.3323 74.0458 42.4889 74.171 42.6872C74.2998 42.8821 74.3641 43.1361 74.3641 43.4492C74.3641 43.9955 74.1554 44.4217 73.7378 44.7279C73.3203 45.034 72.7601 45.1871 72.0573 45.1871ZM77.1541 45.1715C76.6913 45.1715 76.3312 45.0549 76.0738 44.8218C75.8163 44.5852 75.6876 44.2338 75.6876 43.7676L75.6771 41.0589C75.6771 40.9371 75.7084 40.8327 75.7711 40.7457C75.8337 40.6587 75.9224 40.6013 76.0372 40.5735L75.6771 39.6289V39.4671L75.9642 37.7709H77.1071V43.3553C77.1071 43.5779 77.1437 43.7328 77.2167 43.8197C77.2933 43.9067 77.4342 43.9502 77.6395 43.9502C77.803 43.9502 77.9474 43.9485 78.0727 43.945C78.1979 43.9415 78.3127 43.9346 78.4171 43.9241V45.0932C78.2675 45.1349 78.0761 45.1576 77.843 45.161C77.6099 45.168 77.3803 45.1715 77.1541 45.1715ZM75.0039 40.5735V39.3992H78.4015V40.5735H75.0039ZM79.4167 45.0984V39.3992H80.685L80.8206 41.6173L80.7163 41.2937C80.7476 41.0258 80.7998 40.7718 80.8728 40.5317C80.9494 40.2917 81.052 40.0777 81.1808 39.8898C81.313 39.7019 81.4748 39.554 81.6661 39.4462C81.861 39.3383 82.0889 39.2844 82.3498 39.2844C82.4194 39.2844 82.489 39.2879 82.5586 39.2948C82.6317 39.3018 82.696 39.314 82.7517 39.3314V40.8449C82.6334 40.8101 82.5134 40.7875 82.3916 40.777C82.2733 40.7631 82.1585 40.7562 82.0471 40.7562C81.8836 40.7562 81.7235 40.7788 81.567 40.824C81.4104 40.8658 81.2712 40.9319 81.1494 41.0223C81.0277 41.1093 80.932 41.2189 80.8624 41.3511V45.0984H79.4167ZM85.208 45.2132C84.7035 45.2132 84.3051 45.0427 84.0128 44.7018C83.7206 44.3573 83.5744 43.8493 83.5744 43.1778V39.3992H85.0201V42.7342C85.0201 43.0508 85.0497 43.3013 85.1088 43.4857C85.168 43.6667 85.2567 43.7954 85.375 43.8719C85.4968 43.9485 85.6464 43.9868 85.8238 43.9868C86.0604 43.9868 86.2744 43.9137 86.4658 43.7676C86.6606 43.6214 86.8015 43.4527 86.8885 43.2613V39.3992H88.329V45.0984H87.0712L86.9303 42.9482L87.0033 43.3813C86.9616 43.6945 86.8781 43.9902 86.7528 44.2686C86.6311 44.5469 86.4466 44.7748 86.1996 44.9523C85.9526 45.1263 85.622 45.2132 85.208 45.2132ZM92.132 45.1976C91.551 45.1976 91.0587 45.0741 90.6551 44.827C90.2514 44.5765 89.9453 44.2286 89.7365 43.7832C89.5312 43.3344 89.4286 42.816 89.4286 42.2279C89.4286 41.6156 89.5347 41.0902 89.7469 40.6518C89.9627 40.2134 90.2688 39.8776 90.6655 39.6445C91.0621 39.4114 91.5301 39.2948 92.0694 39.2948C92.6018 39.2948 93.0454 39.3888 93.4003 39.5767C93.7552 39.7645 94.0179 40.0203 94.1883 40.3439C94.3623 40.6674 94.4389 41.031 94.418 41.4346H93.0349C93.028 41.2781 93.0036 41.1389 92.9619 41.0171C92.9201 40.8953 92.8592 40.7944 92.7792 40.7144C92.6992 40.6309 92.6 40.5683 92.4817 40.5265C92.3634 40.4848 92.226 40.4639 92.0694 40.4639C91.6484 40.4604 91.3422 40.61 91.1509 40.9127C90.963 41.212 90.869 41.6417 90.869 42.2018C90.869 42.8281 90.9786 43.2857 91.1978 43.5745C91.4205 43.8598 91.7493 44.0076 92.1842 44.0181C92.3164 44.0216 92.4504 43.9937 92.5861 43.9346C92.7253 43.8719 92.8401 43.7763 92.9306 43.6475C93.021 43.5188 93.0628 43.357 93.0558 43.1621H94.4336C94.4441 43.5727 94.3519 43.9311 94.157 44.2373C93.9622 44.5435 93.6891 44.7801 93.3376 44.9471C92.9897 45.1141 92.5878 45.1976 92.132 45.1976ZM97.2454 45.1715C96.7826 45.1715 96.4225 45.0549 96.1651 44.8218C95.9076 44.5852 95.7789 44.2338 95.7789 43.7676L95.7684 41.0589C95.7684 40.9371 95.7997 40.8327 95.8624 40.7457C95.925 40.6587 96.0137 40.6013 96.1285 40.5735L95.7684 39.6289V39.4671L96.0555 37.7709H97.1984V43.3553C97.1984 43.5779 97.235 43.7328 97.308 43.8197C97.3846 43.9067 97.5255 43.9502 97.7308 43.9502C97.8943 43.9502 98.0387 43.9485 98.164 43.945C98.2892 43.9415 98.404 43.9346 98.5084 43.9241V45.0932C98.3588 45.1349 98.1674 45.1576 97.9343 45.161C97.7012 45.168 97.4716 45.1715 97.2454 45.1715ZM95.0952 40.5735V39.3992H98.4928V40.5735H95.0952ZM99.5284 45.0984V39.3992H100.969L100.964 45.0984H99.5284ZM100.254 38.6581C100.003 38.6581 99.7911 38.5711 99.6171 38.3972C99.4432 38.2232 99.3562 38.0005 99.3562 37.7291C99.3562 37.4577 99.4432 37.2368 99.6171 37.0663C99.7946 36.8923 100.007 36.8053 100.254 36.8053C100.501 36.8053 100.711 36.8923 100.885 37.0663C101.063 37.2368 101.152 37.4577 101.152 37.7291C101.152 38.0005 101.063 38.2232 100.885 38.3972C100.711 38.5711 100.501 38.6581 100.254 38.6581ZM104.735 45.1767C104.196 45.1767 103.726 45.0636 103.326 44.8375C102.926 44.6113 102.616 44.279 102.397 43.8406C102.178 43.3987 102.068 42.8577 102.068 42.2175C102.068 41.6121 102.183 41.0902 102.413 40.6518C102.646 40.2134 102.966 39.8776 103.373 39.6445C103.78 39.4079 104.241 39.2896 104.756 39.2896C105.313 39.2896 105.79 39.4079 106.186 39.6445C106.586 39.8776 106.893 40.2134 107.105 40.6518C107.317 41.0902 107.423 41.6121 107.423 42.2175C107.423 42.8577 107.305 43.3987 107.068 43.8406C106.832 44.279 106.51 44.6113 106.103 44.8375C105.699 45.0636 105.243 45.1767 104.735 45.1767ZM104.756 43.9711C105.111 43.9711 105.403 43.8389 105.633 43.5745C105.866 43.31 105.983 42.8577 105.983 42.2175C105.983 41.6225 105.866 41.1876 105.633 40.9127C105.4 40.6344 105.101 40.4952 104.735 40.4952C104.38 40.4952 104.088 40.6326 103.859 40.9075C103.629 41.1824 103.514 41.619 103.514 42.2175C103.514 42.8299 103.632 43.2752 103.869 43.5536C104.106 43.8319 104.401 43.9711 104.756 43.9711ZM108.529 45.0984V39.3992H109.797L109.933 41.5495L109.86 41.1163C109.902 40.8031 109.984 40.5074 110.105 40.229C110.227 39.9472 110.41 39.7193 110.653 39.5453C110.9 39.3714 111.226 39.2844 111.629 39.2844C112.158 39.2844 112.576 39.4531 112.882 39.7906C113.188 40.1247 113.341 40.6361 113.341 41.325V45.0984H111.901V41.8469C111.901 41.5025 111.868 41.2346 111.802 41.0432C111.739 40.8484 111.643 40.7109 111.515 40.6309C111.389 40.5509 111.229 40.5109 111.034 40.5109C110.798 40.5109 110.584 40.5839 110.392 40.7301C110.205 40.8762 110.065 41.045 109.975 41.2363V45.0984H108.529ZM116.614 45.0984V37.5099H118.08V44.5869L117.25 43.7362H121.013V45.0984H116.614ZM123.361 45.1715C122.898 45.1715 122.538 45.0549 122.281 44.8218C122.023 44.5852 121.894 44.2338 121.894 43.7676L121.884 41.0589C121.884 40.9371 121.915 40.8327 121.978 40.7457C122.041 40.6587 122.129 40.6013 122.244 40.5735L121.884 39.6289V39.4671L122.171 37.7709H123.314V43.3553C123.314 43.5779 123.351 43.7328 123.424 43.8197C123.5 43.9067 123.641 43.9502 123.846 43.9502C124.01 43.9502 124.154 43.9485 124.28 43.945C124.405 43.9415 124.52 43.9346 124.624 43.9241V45.0932C124.474 45.1349 124.283 45.1576 124.05 45.161C123.817 45.168 123.587 45.1715 123.361 45.1715ZM121.211 40.5735V39.3992H124.608V40.5735H121.211ZM127.573 45.1663C127.107 45.1663 126.71 45.0427 126.383 44.7957C126.06 44.5452 125.815 44.199 125.648 43.7571C125.481 43.3152 125.397 42.8038 125.397 42.2227C125.397 41.593 125.498 41.0606 125.7 40.6257C125.902 40.1908 126.173 39.8602 126.514 39.6341C126.855 39.4079 127.234 39.2948 127.652 39.2948C127.979 39.2948 128.248 39.3505 128.461 39.4618C128.673 39.5697 128.836 39.7071 128.951 39.8741C129.066 40.0412 129.141 40.2064 129.176 40.37L129.447 40.6727L129.108 41.0797C129.076 40.9684 129.019 40.8692 128.936 40.7823C128.856 40.6918 128.746 40.6205 128.607 40.5683C128.471 40.5161 128.301 40.49 128.095 40.49C127.716 40.49 127.413 40.6309 127.187 40.9127C126.961 41.1946 126.848 41.6399 126.848 42.2488C126.848 42.8125 126.954 43.2439 127.166 43.5431C127.379 43.8389 127.671 43.9868 128.043 43.9868C128.255 43.9868 128.436 43.9537 128.586 43.8876C128.739 43.818 128.859 43.738 128.946 43.6475C129.036 43.5536 129.09 43.4701 129.108 43.397L129.17 43.517L129.108 43.7884C129.076 43.9485 129.026 44.1103 128.956 44.2738C128.887 44.4373 128.793 44.5869 128.675 44.7226C128.556 44.8549 128.407 44.9627 128.226 45.0462C128.048 45.1263 127.831 45.1663 127.573 45.1663ZM129.113 45.0984L129.108 36.9776H130.543V45.0984H129.113ZM132.459 45.1767C132.222 45.1767 132.021 45.0915 131.854 44.921C131.687 44.7505 131.603 44.5295 131.603 44.2581C131.603 43.9937 131.687 43.778 131.854 43.611C132.021 43.4405 132.222 43.3553 132.459 43.3553C132.696 43.3553 132.897 43.4405 133.064 43.611C133.231 43.778 133.315 43.9955 133.315 44.2634C133.315 44.5313 133.231 44.7505 133.064 44.921C132.897 45.0915 132.696 45.1767 132.459 45.1767Z" fill="#3D1766"/>
<path d="M22.311 14.4825L6.72316 30.0704V49.7111H37.8989V30.0704L22.311 14.4825Z" fill="#F03A00" stroke="#3D1766" stroke-width="1.00032" stroke-linejoin="round"/>
</svg>
