<svg width="29" height="29" viewBox="0 0 29 29" fill="none" xmlns="http://www.w3.org/2000/svg">
<path d="M14.119 0C10.2848 0 9.80363 0.0167652 8.29773 0.0852953C6.79478 0.15412 5.76888 0.392063 4.87123 0.741184C3.94269 1.10178 3.15503 1.58413 2.37032 2.36914C1.58502 3.15386 1.10266 3.94151 0.74089 4.86976C0.390886 5.76771 0.152649 6.79389 0.0850008 8.29626C0.0176471 9.80216 0 10.2836 0 14.1178C0 17.952 0.0170593 18.4317 0.0852953 19.9376C0.154414 21.4405 0.392357 22.4664 0.741184 23.3641C1.10207 24.2926 1.58443 25.0803 2.36944 25.865C3.15386 26.6503 3.94151 27.1338 4.86946 27.4944C5.76771 27.8435 6.79389 28.0815 8.29656 28.1503C9.80245 28.2188 10.2833 28.2356 14.1172 28.2356C17.9517 28.2356 18.4314 28.2188 19.9373 28.1503C21.4402 28.0815 22.4673 27.8435 23.3655 27.4944C24.2938 27.1338 25.0803 26.6503 25.8647 25.865C26.65 25.0803 27.1323 24.2926 27.4941 23.3644C27.8412 22.4664 28.0794 21.4402 28.15 19.9379C28.2176 18.432 28.2353 17.952 28.2353 14.1178C28.2353 10.2836 28.2176 9.80245 28.15 8.29656C28.0794 6.7936 27.8412 5.76771 27.4941 4.87005C27.1323 3.94151 26.65 3.15386 25.8647 2.36914C25.0794 1.58384 24.2941 1.10148 23.3647 0.741184C22.4646 0.392063 21.4382 0.15412 19.9352 0.0852953C18.4293 0.0167652 17.9499 0 14.1146 0H14.119ZM12.8525 2.54414C13.2284 2.54356 13.6478 2.54414 14.119 2.54414C17.8884 2.54414 18.3352 2.55767 19.8237 2.62532C21.2002 2.68826 21.9473 2.91827 22.4449 3.1115C23.1038 3.36739 23.5735 3.67327 24.0673 4.1674C24.5614 4.66152 24.8673 5.13211 25.1238 5.79094C25.317 6.28801 25.5473 7.03507 25.61 8.41156C25.6776 9.89981 25.6923 10.3469 25.6923 14.1146C25.6923 17.8822 25.6776 18.3293 25.61 19.8176C25.547 21.194 25.317 21.9411 25.1238 22.4382C24.8679 23.097 24.5614 23.5661 24.0673 24.06C23.5732 24.5541 23.1041 24.86 22.4449 25.1158C21.9479 25.31 21.2002 25.5394 19.8237 25.6023C18.3355 25.67 17.8884 25.6847 14.119 25.6847C10.3492 25.6847 9.90246 25.67 8.41421 25.6023C7.03772 25.5388 6.29065 25.3088 5.79271 25.1156C5.13388 24.8597 4.66328 24.5538 4.16916 24.0597C3.67504 23.5655 3.36915 23.0961 3.11268 22.437C2.91944 21.9399 2.68915 21.1929 2.6265 19.8164C2.55885 18.3281 2.54532 17.8811 2.54532 14.111C2.54532 10.341 2.55885 9.89628 2.6265 8.40803C2.68944 7.03154 2.91944 6.28448 3.11268 5.78682C3.36856 5.12799 3.67504 4.6574 4.16916 4.16328C4.66328 3.66916 5.13388 3.36327 5.79271 3.1068C6.29036 2.91268 7.03772 2.68326 8.41421 2.62003C9.71657 2.5612 10.2213 2.54356 12.8525 2.54061V2.54414ZM21.6549 4.88829C20.7196 4.88829 19.9608 5.64623 19.9608 6.58183C19.9608 7.51714 20.7196 8.27597 21.6549 8.27597C22.5902 8.27597 23.3491 7.51714 23.3491 6.58183C23.3491 5.64653 22.5902 4.8877 21.6549 4.8877V4.88829ZM14.119 6.86772C10.1151 6.86772 6.8689 10.1139 6.8689 14.1178C6.8689 18.1217 10.1151 21.3664 14.119 21.3664C18.1228 21.3664 21.3679 18.1217 21.3679 14.1178C21.3679 10.1139 18.1225 6.86772 14.1187 6.86772H14.119ZM14.119 9.41186C16.7178 9.41186 18.8249 11.5186 18.8249 14.1178C18.8249 16.7166 16.7178 18.8237 14.119 18.8237C11.5198 18.8237 9.41304 16.7166 9.41304 14.1178C9.41304 11.5186 11.5198 9.41186 14.119 9.41186Z" fill="white"/>
</svg>
