<svg width="29" height="29" viewBox="0 0 29 29" fill="none" xmlns="http://www.w3.org/2000/svg">
<path d="M9.34013 26.4705C19.9948 26.4705 25.8248 17.6417 25.8248 9.99844C25.8248 9.75006 25.8248 9.50168 25.8135 9.2533C26.9434 8.44043 27.9264 7.41304 28.706 6.25017C27.6665 6.71306 26.548 7.01789 25.3729 7.16466C26.5706 6.45339 27.4857 5.31311 27.9264 3.95831C26.8078 4.62442 25.565 5.0986 24.243 5.35827C23.181 4.22927 21.6782 3.5293 20.0173 3.5293C16.8198 3.5293 14.2211 6.12598 14.2211 9.32104C14.2211 9.77264 14.2776 10.2129 14.368 10.642C9.55481 10.4049 5.28392 8.09044 2.42537 4.59055C1.92823 5.44859 1.64576 6.4421 1.64576 7.50336C1.64576 9.51297 2.67394 11.2855 4.22185 12.3242C3.27277 12.2903 2.38017 12.0306 1.60057 11.6016C1.60057 11.6242 1.60057 11.6468 1.60057 11.6806C1.60057 14.4805 3.60043 16.8289 6.24431 17.3595C5.75847 17.495 5.25003 17.5627 4.71899 17.5627C4.34614 17.5627 3.98458 17.5288 3.63432 17.4611C4.36873 19.7642 6.51547 21.4352 9.04637 21.4803C7.05781 23.0383 4.56081 23.9641 1.84914 23.9641C1.38589 23.9641 0.922649 23.9415 0.470703 23.8851C3.0242 25.5108 6.07483 26.4705 9.34013 26.4705Z" fill="white"/>
</svg>
